<svg xmlns="http://www.w3.org/2000/svg" width="800" height="142" viewBox="0 0 800 142"><path fill="#FFF" d="M578.6 37.2h-18.4c-5.2 0-8.8 1-11 3.2-2.2 2.1-3.3 5.8-3.3 10.8v63.6h-11V50.4c.1-4.9.9-10.2 3.5-14.2 4.7-7.5 13.7-8.9 20.4-8.9h19.9v9.9zm-71 67.6c-5.2 0-8.8-1-11-3.2-2.2-2.1-3.3-5.6-3.3-10.6V37.2h23.1v-9.9h-23.1V1h-11v90.6c.1 4.9.9 10.2 3.5 14.2 4.7 7.5 13.7 8.9 20.4 8.9h19.9v-9.9h-18.5zM219.3 1v26.2h-23.1c-14 0-22.5 4.2-27.8 9.3-8.1 7.9-8.1 19.2-8.1 20.4v28.2c0 1.2 0 12.5 8.1 20.4 5.2 5.1 13.7 9.3 27.8 9.3h10.3c6.7 0 15.7-1.5 20.4-8.9 2.5-4 3.4-9.3 3.5-14.2V1h-11.1zM216 101.7c-2.2 2.1-5.8 3.2-11 3.2h-10c-9.1 0-14.8-2.6-18.2-6-4.1-4-5.5-9.3-5.5-13.4V56.6c0-4.1 1.4-9.4 5.5-13.4 3.5-3.4 9.1-6 18.2-6h24.2v53.9c.1 4.9-1 8.4-3.2 10.6zm462.2-58.5c3.5-3.4 9.1-6 18.2-6h26.5v-9.9h-25.4c-14 0-22.5 4.2-27.8 9.3-8.1 7.9-8.1 19.2-8.1 20.4v28.2c0 1.2 0 12.5 8.1 20.4 5.2 5.1 13.7 9.3 27.8 9.3h25.4V105h-26.5c-9.1 0-14.8-2.6-18.2-6-4.1-4-5.5-9.3-5.5-13.4v-29c0-4.2 1.4-9.5 5.5-13.4zM470.9 56.9c0-1.2 0-12.5-8.1-20.4-5.2-5.1-13.7-9.3-27.8-9.3h-24.5v9.9h25.6c9.1 0 14.8 2.6 18.2 6 4.1 4 5.5 9.3 5.5 13.4V65h-35.1c-6.7 0-15.7 1.5-20.4 8.9-2.5 4-3.4 9.3-3.5 14.2v3.5c.1 4.9.9 10.2 3.5 14.2 4.7 7.5 13.7 8.9 20.4 8.9H447c6.7 0 15.7-1.5 20.4-8.9 2.5-4 3.4-9.3 3.5-14.2V56.9zm-14.3 44.8c-2.2 2.1-5.8 3.2-11 3.2h-19.4c-5.2 0-8.8-1-11-3.2-2.2-2.2-3.2-5.7-3.2-10.6v-2.4c0-5 1.1-8.5 3.3-10.6 2.2-2.1 5.8-3.2 11-3.2h33.6v16.2c0 4.9-1.1 8.4-3.3 10.6zm196.3-44.8c0-1.2 0-12.5-8.1-20.4-5.2-5.1-13.7-9.3-27.8-9.3h-24.5v9.9h25.6c9.1 0 14.8 2.6 18.2 6 4.1 4 5.5 9.3 5.5 13.4V65h-35.1c-6.7 0-15.7 1.5-20.4 8.9-2.5 4-3.4 9.3-3.5 14.2v3.5c.1 4.9.9 10.2 3.5 14.2 4.7 7.5 13.7 8.9 20.4 8.9H629c6.7 0 15.7-1.5 20.4-8.9 2.5-4 3.4-9.3 3.5-14.2V56.9zm-14.3 44.8c-2.2 2.1-5.8 3.2-11 3.2h-19.4c-5.2 0-8.8-1-11-3.2-2.2-2.2-3.2-5.7-3.2-10.6v-2.4c0-5 1.1-8.5 3.3-10.6 2.2-2.1 5.8-3.2 11-3.2h33.6v16.2c0 4.9-1.1 8.4-3.3 10.6zM317.8 27.2h-11.5l-27.9 72.6-27.9-72.6h-11.4l33.6 87.5-10.1 26.3h11.5zm74.4 29.7c0-1.2 0-12.5-8-20.4-5.1-5-13.2-9.1-26.4-9.3h-1.2c-13.2.2-21.3 4.3-26.4 9.3-8 7.9-8 19.2-8 20.4v57.9h11V56.6c0-4.1 1.3-9.4 5.4-13.4 3.4-3.3 9.9-5.9 18.6-6 8.7.1 15.2 2.7 18.6 6 4 4 5.4 9.3 5.4 13.4v58.2h11V56.9zM791 36.5c-5.1-5-13.2-9.1-26.4-9.3h-1.2c-13.2.2-21.3 4.3-26.4 9.3-8 7.9-8 19.2-8 20.4v28.2c0 1.2 0 12.5 8 20.4 5.1 5 13.2 9.1 26.4 9.3h26v-10H764c-8.7-.1-15.2-2.7-18.6-6-4-4-5.4-9.3-5.4-13.4V75.1h59V56.9c0-1.2.1-12.5-8-20.4zm-50.9 28.7v-8.6c0-4.1 1.3-9.4 5.4-13.4 3.4-3.3 9.9-5.9 18.6-6 8.7.1 15.2 2.7 18.6 6 4 4 5.4 9.3 5.4 13.4v8.6h-48z"/><g fill="#FFF"><path d="M42.5 50.6S3.2 45.9 1 55.4c.1 7.1.3 18.3 1.2 30.8 1.4 21.3 4.1 40.2 4.1 40.2l35.5-33.8c-.1.1-1.4-16.8.7-42zm46.7 49c-25.3.8-42.1-1.3-42.1-1.3l-35.5 33.8s18.8 3.7 40 6.1c12 1.4 28.2 2.5 30.5 2.7.2 0 .5 0 .6-.1 9.2-2.6 6.5-41.2 6.5-41.2z"/><path d="M13 45.7c9.6-1.3 23.8-2.8 38.1-3.2 25.3-.8 42 1.3 42 1.3L128.6 10S110 6.5 88.8 4C74.9 2.3 62.7 1.4 55.9 1c-.5 0-5.4-.6-10 3.8-5.1 4.8-30.5 28.9-40.7 38.6C.6 47.8 1 52.7 1 53.1v2.2c.4-1.7 1.1-2.9 2.5-4.8 2.9-3.6 7.6-4.6 9.5-4.8zm125 10c-1.4-21.3-4.1-40.1-4.1-40.1L98.5 49.4s1.3 16.8-.8 42c-1.1 14.3-3.4 28.4-5.1 37.9-.3 1.9-1.5 6.5-5.4 9.3-1.9 1.3-3.1 1.9-4.9 2.3.8 0 1.5.1 2.2.1.5 0 5.4.6 10-3.8 10.2-9.7 35.5-33.9 40.5-38.7 4.6-4.4 4.2-9.3 4.2-9.8 0-6.8-.2-19.1-1.2-33z"/></g></svg>